HIERARCHY
ROOT Hips
{
	OFFSET 1.077585 0.144225 1.746933
	CHANNELS 6 Xposition Yposition Zposition Zrotation Yrotation Xrotation 
	JOINT Spine
	{
		OFFSET 0.000023 8.340380 -2.713976
		CHANNELS 3 Zrotation Yrotation Xrotation
		JOINT Spine1
		{
			OFFSET -0.000016 11.909977 -2.100049
			CHANNELS 3 Zrotation Yrotation Xrotation
			JOINT Spine2
			{
				OFFSET -0.000026 12.047739 -1.054070
				CHANNELS 3 Zrotation Yrotation Xrotation
				JOINT Spine3
				{
					OFFSET -0.000014 12.093770 -0.000012
					CHANNELS 3 Zrotation Yrotation Xrotation
					JOINT Neck
					{
						OFFSET 0.000072 15.549103 1.554837
						CHANNELS 3 Zrotation Yrotation Xrotation
						JOINT Neck1
						{
							OFFSET 0.000035 4.687378 0.410074
							CHANNELS 3 Zrotation Yrotation Xrotation
							JOINT Head
							{
								OFFSET -0.000018 4.633836 0.817032
								CHANNELS 3 Zrotation Yrotation Xrotation
								JOINT HeadEnd
								{
									OFFSET -0.000016 9.727688 -0.000062
									CHANNELS 3 Zrotation Yrotation Xrotation
									End Site
									{
										OFFSET 0.000000 0.000000 0.000000
									}
								}
							}
						}
					}
					JOINT RightShoulder
					{
						OFFSET -0.000015 11.106393 6.072614
						CHANNELS 3 Zrotation Yrotation Xrotation
						JOINT RightArm
						{
							OFFSET -19.427909 0.000024 0.000038
							CHANNELS 3 Zrotation Yrotation Xrotation
							JOINT RightForeArm
							{
								OFFSET -29.350712 0.000013 -0.000066
								CHANNELS 3 Zrotation Yrotation Xrotation
								JOINT RightHand
								{
									OFFSET -27.018011 -0.000015 -0.000011
									CHANNELS 3 Zrotation Yrotation Xrotation
									JOINT RightHandMiddle1
									{
										OFFSET -9.244032 0.000004 -0.000001
										CHANNELS 3 Zrotation Yrotation Xrotation
										JOINT RightHandMiddle2
										{
											OFFSET -4.870026 -0.000021 0.000016
											CHANNELS 3 Zrotation Yrotation Xrotation
											JOINT RightHandMiddle3
											{
												OFFSET -3.169056 0.000007 0.000016
												CHANNELS 3 Zrotation Yrotation Xrotation
												JOINT RightHandMiddle4
												{
													OFFSET -1.888352 -0.000000 -0.000027
													CHANNELS 3 Zrotation Yrotation Xrotation
													End Site
													{
														OFFSET 0.000000 0.000000 0.000000
													}
												}
											}
										}
									}
									JOINT RightHandRing
									{
										OFFSET -0.250022 -0.249974 -0.956492
										CHANNELS 3 Zrotation Yrotation Xrotation
										JOINT RightHandRing1
										{
											OFFSET -8.140185 -0.000002 -0.734574
											CHANNELS 3 Zrotation Yrotation Xrotation
											JOINT RightHandRing2
											{
												OFFSET -4.501555 0.000038 -0.406270
												CHANNELS 3 Zrotation Yrotation Xrotation
												JOINT RightHandRing3
												{
													OFFSET -3.068873 0.000005 -0.276953
													CHANNELS 3 Zrotation Yrotation Xrotation
													JOINT RightHandRing4
													{
														OFFSET -1.869921 0.000024 -0.168742
														CHANNELS 3 Zrotation Yrotation Xrotation
														End Site
														{
															OFFSET 0.000000 0.000000 0.000000
														}
													}
												}
											}
										}
										JOINT RightHandPinky
										{
											OFFSET -0.163015 -0.250022 -0.975109
											CHANNELS 3 Zrotation Yrotation Xrotation
											JOINT RightHandPinky1
											{
												OFFSET -6.681493 0.000014 -1.494089
												CHANNELS 3 Zrotation Yrotation Xrotation
												JOINT RightHandPinky2
												{
													OFFSET -3.580935 0.000007 -0.800761
													CHANNELS 3 Zrotation Yrotation Xrotation
													JOINT RightHandPinky3
													{
														OFFSET -2.276495 0.000018 -0.509074
														CHANNELS 3 Zrotation Yrotation Xrotation
														JOINT RightHandPinky4
														{
															OFFSET -1.690348 0.000041 -0.377979
															CHANNELS 3 Zrotation Yrotation Xrotation
															End Site
															{
																OFFSET 0.000000 0.000000 0.000000
															}
														}
													}
												}
											}
										}
									}
									JOINT RightHandIndex
									{
										OFFSET -0.250052 -0.250030 0.956513
										CHANNELS 3 Zrotation Yrotation Xrotation
										JOINT RightHandIndex1
										{
											OFFSET -8.934112 0.000004 0.806256
											CHANNELS 3 Zrotation Yrotation Xrotation
											JOINT RightHandIndex2
											{
												OFFSET -4.694705 0.000031 0.423695
												CHANNELS 3 Zrotation Yrotation Xrotation
												JOINT RightHandIndex3
												{
													OFFSET -2.811744 -0.000017 0.253751
													CHANNELS 3 Zrotation Yrotation Xrotation
													JOINT RightHandIndex4
													{
														OFFSET -1.709978 -0.000013 0.154334
														CHANNELS 3 Zrotation Yrotation Xrotation
														End Site
														{
															OFFSET 0.000000 0.000000 0.000000
														}
													}
												}
											}
										}
										JOINT RightHandThumb1
										{
											OFFSET -0.163034 -0.750026 0.975080
											CHANNELS 3 Zrotation Yrotation Xrotation
											JOINT RightHandThumb2
											{
												OFFSET -5.411685 0.835503 2.244719
												CHANNELS 3 Zrotation Yrotation Xrotation
												JOINT RightHandThumb3
												{
													OFFSET -3.567191 0.550761 1.479613
													CHANNELS 3 Zrotation Yrotation Xrotation
													JOINT RightHandThumb4
													{
														OFFSET -2.150558 0.332007 0.892010
														CHANNELS 3 Zrotation Yrotation Xrotation
														End Site
														{
															OFFSET 0.000000 0.000000 0.000000
														}
													}
												}
											}
										}
									}
								}
							}
						}
					}
					JOINT LeftShoulder
					{
						OFFSET -0.000025 11.106418 6.072580
						CHANNELS 3 Zrotation Yrotation Xrotation
						JOINT LeftArm
						{
							OFFSET 19.427847 -0.000080 -0.000081
							CHANNELS 3 Zrotation Yrotation Xrotation
							JOINT LeftForeArm
							{
								OFFSET 29.350746 -0.000008 0.000077
								CHANNELS 3 Zrotation Yrotation Xrotation
								JOINT LeftHand
								{
									OFFSET 27.018132 0.000008 -0.000029
									CHANNELS 3 Zrotation Yrotation Xrotation
									JOINT LeftHandMiddle1
									{
										OFFSET 9.402695 -0.000016 -0.000005
										CHANNELS 3 Zrotation Yrotation Xrotation
										JOINT LeftHandMiddle2
										{
											OFFSET 4.950081 0.000014 0.000019
											CHANNELS 3 Zrotation Yrotation Xrotation
											JOINT LeftHandMiddle3
											{
												OFFSET 3.211968 -0.000001 -0.000009
												CHANNELS 3 Zrotation Yrotation Xrotation
												JOINT LeftHandMiddle4
												{
													OFFSET 1.927583 0.000010 -0.000082
													CHANNELS 3 Zrotation Yrotation Xrotation
													End Site
													{
														OFFSET 0.000000 0.000000 0.000000
													}
												}
											}
										}
									}
									JOINT LeftHandRing
									{
										OFFSET 0.249993 -0.249996 -0.906117
										CHANNELS 3 Zrotation Yrotation Xrotation
										JOINT LeftHandRing1
										{
											OFFSET 8.286045 0.000037 -0.747769
											CHANNELS 3 Zrotation Yrotation Xrotation
											JOINT LeftHandRing2
											{
												OFFSET 4.585463 -0.000015 -0.413799
												CHANNELS 3 Zrotation Yrotation Xrotation
												JOINT LeftHandRing3
												{
													OFFSET 3.124418 0.000013 -0.281970
													CHANNELS 3 Zrotation Yrotation Xrotation
													JOINT LeftHandRing4
													{
														OFFSET 1.908788 -0.000033 -0.172258
														CHANNELS 3 Zrotation Yrotation Xrotation
														End Site
														{
															OFFSET 0.000000 0.000000 0.000000
														}
													}
												}
											}
										}
										JOINT LeftHandPinky
										{
											OFFSET 0.167555 -0.250011 -0.924977
											CHANNELS 3 Zrotation Yrotation Xrotation
											JOINT LeftHandPinky1
											{
												OFFSET 6.823484 0.000004 -1.525888
												CHANNELS 3 Zrotation Yrotation Xrotation
												JOINT LeftHandPinky2
												{
													OFFSET 3.642852 -0.000009 -0.814610
													CHANNELS 3 Zrotation Yrotation Xrotation
													JOINT LeftHandPinky3
													{
														OFFSET 2.333117 -0.000019 -0.521745
														CHANNELS 3 Zrotation Yrotation Xrotation
														JOINT LeftHandPinky4
														{
															OFFSET 1.725439 -0.000009 -0.385851
															CHANNELS 3 Zrotation Yrotation Xrotation
															End Site
															{
																OFFSET 0.000000 0.000000 0.000000
															}
														}
													}
												}
											}
										}
									}
									JOINT LeftHandIndex
									{
										OFFSET 0.250018 -0.249999 0.906187
										CHANNELS 3 Zrotation Yrotation Xrotation
										JOINT LeftHandIndex1
										{
											OFFSET 9.088012 0.000007 0.820122
											CHANNELS 3 Zrotation Yrotation Xrotation
											JOINT LeftHandIndex2
											{
												OFFSET 4.776551 0.000008 0.431091
												CHANNELS 3 Zrotation Yrotation Xrotation
												JOINT LeftHandIndex3
												{
													OFFSET 2.865141 -0.000001 0.258581
													CHANNELS 3 Zrotation Yrotation Xrotation
													JOINT LeftHandIndex4
													{
														OFFSET 1.745464 0.000004 0.157492
														CHANNELS 3 Zrotation Yrotation Xrotation
														End Site
														{
															OFFSET 0.000000 0.000000 0.000000
														}
													}
												}
											}
										}
										JOINT LeftHandThumb1
										{
											OFFSET 0.167555 -0.749995 0.924978
											CHANNELS 3 Zrotation Yrotation Xrotation
											JOINT LeftHandThumb2
											{
												OFFSET 5.551438 0.857130 2.302691
												CHANNELS 3 Zrotation Yrotation Xrotation
												JOINT LeftHandThumb3
												{
													OFFSET 3.625636 0.559787 1.503877
													CHANNELS 3 Zrotation Yrotation Xrotation
													JOINT LeftHandThumb4
													{
														OFFSET 2.195227 0.338952 0.910529
														CHANNELS 3 Zrotation Yrotation Xrotation
														End Site
														{
															OFFSET 0.000000 0.000000 0.000000
														}
													}
												}
											}
										}
									}
								}
							}
						}
					}
				}
			}
		}
	}
	JOINT RightUpLeg
	{
		OFFSET -8.786534 0.000045 0.000023
		CHANNELS 3 Zrotation Yrotation Xrotation
		JOINT RightLeg
		{
			OFFSET -0.000053 -42.170417 -0.000012
			CHANNELS 3 Zrotation Yrotation Xrotation
			JOINT RightFoot
			{
				OFFSET -0.000014 -45.949138 -0.000047
				CHANNELS 3 Zrotation Yrotation Xrotation
				JOINT RightForeFoot
				{
					OFFSET -0.000045 -4.685844 -0.000001
					CHANNELS 3 Zrotation Yrotation Xrotation
					JOINT RightToeBase
					{
						OFFSET 0.000011 0.000018 18.351065
						CHANNELS 3 Zrotation Yrotation Xrotation
						JOINT RightToeBaseEnd
						{
							OFFSET 0.000078 -0.000023 6.416872
							CHANNELS 3 Zrotation Yrotation Xrotation
							End Site
							{
								OFFSET 0.000000 0.000000 0.000000
							}
						}
					}
				}
			}
		}
	}
	JOINT LeftUpLeg
	{
		OFFSET 8.786535 0.000027 -0.000040
		CHANNELS 3 Zrotation Yrotation Xrotation
		JOINT LeftLeg
		{
			OFFSET -0.000002 -42.170442 0.000041
			CHANNELS 3 Zrotation Yrotation Xrotation
			JOINT LeftFoot
			{
				OFFSET 0.000012 -45.949105 -0.000003
				CHANNELS 3 Zrotation Yrotation Xrotation
				JOINT LeftForeFoot
				{
					OFFSET 0.000004 -4.685768 0.000010
					CHANNELS 3 Zrotation Yrotation Xrotation
					JOINT LeftToeBase
					{
						OFFSET 0.000017 -0.000021 18.351091
						CHANNELS 3 Zrotation Yrotation Xrotation
						JOINT LeftToeBaseEnd
						{
							OFFSET 0.000044 0.000042 7.522012
							CHANNELS 3 Zrotation Yrotation Xrotation
							End Site
							{
								OFFSET 0.000000 0.000000 0.000000
							}
						}
					}
				}
			}
		}
	}
}
MOTION
Frames: 5
Frame Time: 0.066667
-3.608765 -0.944154 8.339245 -8.736762 24.828161 -8.237974 10.065386 -1.348667 5.885888 -0.396481 -0.232509 -2.049183 0.286181 0.266348 -0.960491 2.178756 0.783819 9.635641 5.539465 -1.633343 7.480207 -8.142606 2.148688 0.978317 -4.840294 0.997480 1.745645 0.000690 -0.001391 -0.002087 6.607186 -13.343907 -1.558967 69.363762 15.619844 5.136842 179.996246 62.502018 167.244675 -28.719868 -3.564708 -0.010782 44.393456 -7.558922 -0.013545 42.994133 -0.000902 -0.002392 30.881985 -0.002674 0.000148 0.000502 -0.003785 -0.000862 -1.742371 -1.798118 -7.670943 59.431858 -6.071071 -4.446232 60.871941 2.694486 -4.516475 28.390820 0.612696 -2.460528 -0.000149 0.001731 0.002200 -4.013603 -5.000494 -3.678150 46.902004 4.059102 -9.386512 58.353901 6.181595 -10.967690 38.672474 2.817230 -8.037790 0.000486 -0.002033 0.000346 -2.169293 8.093182 2.005776 7.428774 -3.045813 0.656494 7.622783 -0.052564 0.684237 13.744780 -0.154393 1.232582 0.000953 0.002223 -0.002130 7.437271 8.147578 51.469723 6.519179 -4.188419 1.845220 14.095475 -9.490672 3.415899 0.000512 0.002557 -0.001431 -9.509917 8.328519 -1.390494 -66.140823 -13.432533 3.564833 179.998978 -60.493931 177.057419 16.740938 10.660795 -0.034638 -24.318027 2.672966 0.001421 -0.029549 0.000712 0.001863 -6.954899 -0.001507 0.000647 -0.000724 -0.001311 0.000656 -1.466541 1.643923 -11.777749 -21.597376 0.382506 -1.902556 -17.063908 -0.205320 -1.514741 0.175565 0.001239 0.015501 0.000706 -0.001176 0.003452 -0.267799 0.486776 -9.886436 -16.641525 10.085556 -3.587529 -20.429897 -0.803584 -4.478625 -16.204760 -0.508487 -3.577689 0.002529 0.002239 0.001233 2.544354 -6.606148 -4.468107 -16.195204 0.965599 1.446465 12.991932 0.124100 -1.158645 4.474328 0.003369 -0.400475 0.002904 0.001701 0.001371 -11.539449 2.392612 41.339291 6.042714 5.533965 -3.363361 0.000000 0.000000 0.000000 -0.002088 -0.001333 -0.001241 12.505970 -2.944191 11.630573 -0.000307 0.001160 0.813494 0.000000 0.000000 -0.000000 -0.000000 0.000000 -0.000000 -0.000000 0.000000 0.000000 0.000000 0.000000 0.000000 20.231607 3.583180 -2.683974 -0.000715 0.002981 10.017435 -0.000000 -0.000000 -0.000000 0.000000 -0.000000 -0.000000 0.000000 -0.000000 0.000000 -0.000000 -0.000000 0.000000 
-3.478667 -0.934274 8.393525 -8.727754 24.936691 -8.260352 10.047064 -1.341082 6.044205 -0.397193 -0.231634 -2.027556 0.275871 0.272846 -0.932461 2.152154 0.780786 9.694898 5.528812 -1.549702 7.429498 -8.156997 2.258644 0.925081 -4.861897 1.007570 1.737009 0.000817 -0.001613 -0.001892 6.592523 -13.346536 -1.555060 69.273918 15.468790 4.515709 179.995575 62.976089 166.596603 -28.919449 -3.761141 -0.010658 44.147110 -7.531432 -0.013761 43.161358 -0.000852 -0.002229 30.387186 -0.002292 0.000158 0.000571 -0.004051 -0.001057 -1.805844 -1.705191 -7.423393 58.519287 -6.039097 -4.402834 60.448784 2.672305 -4.497161 28.043428 0.601547 -2.432323 0.000102 0.001574 0.002281 -3.997011 -5.007763 -3.898381 45.865372 4.224175 -9.233966 58.759384 6.245290 -11.015378 38.958855 2.850150 -8.087666 0.000603 -0.002130 0.000182 -2.097692 8.031075 1.828651 8.832099 -3.595007 0.786957 9.048845 -0.060096 0.811155 14.619299 -0.169172 1.308915 0.001086 0.001886 -0.001985 7.322125 8.099232 51.199944 6.093750 -4.312712 1.680013 13.815147 -9.302122 3.368437 0.000399 0.002921 -0.001290 -9.481367 8.337711 -1.388846 -66.363136 -13.410438 3.261474 179.999130 -60.834778 176.719055 16.827860 10.862929 -0.035315 -23.332638 2.845920 0.000938 -0.184713 0.000653 0.001628 -6.942559 -0.001538 0.000925 -0.000490 -0.001230 0.000547 -1.443733 1.578347 -11.698240 -20.634995 0.535387 -1.820990 -16.822226 -0.198146 -1.493380 0.125851 0.000992 0.011099 0.000916 -0.000976 0.003343 -0.296932 0.450041 -9.940721 -15.805250 10.173581 -3.411762 -20.244896 -0.787521 -4.438858 -16.167290 -0.509278 -3.570655 0.002641 0.002003 0.000979 2.520682 -6.553893 -4.377342 -15.751001 1.041007 1.406174 12.096973 0.106939 -1.080229 3.950461 0.000463 -0.353583 0.002585 0.001727 0.001266 -11.403255 2.380433 41.310665 5.772733 5.567801 -3.244100 0.000000 0.000000 0.000000 -0.002184 -0.001580 -0.001280 12.521351 -3.041048 11.588601 -0.000475 0.001238 0.747204 0.000000 0.000000 -0.000000 -0.000000 0.000000 -0.000000 -0.000000 0.000000 0.000000 0.000000 0.000000 0.000000 20.154266 4.061006 -2.728762 -0.000617 0.002966 10.164871 -0.000000 -0.000000 -0.000000 0.000000 -0.000000 -0.000000 0.000000 -0.000000 0.000000 -0.000000 -0.000000 0.000000 
-3.445913 -0.922099 8.456205 -8.714497 24.920866 -8.238345 10.044467 -1.331779 6.169165 -0.397470 -0.230656 -2.010483 0.266534 0.289142 -0.919251 2.125674 0.780746 9.728939 5.502274 -1.485722 7.413360 -8.163322 2.324173 0.850984 -4.879276 1.014667 1.707116 0.001017 -0.001804 -0.001789 6.575721 -13.363420 -1.552266 69.239906 15.212933 4.039821 179.994598 63.301540 165.947937 -29.271416 -3.813770 -0.009799 43.225433 -7.642058 -0.013775 42.361721 -0.000702 -0.001964 29.335169 -0.001881 0.000179 0.000713 -0.004166 -0.001125 -1.854743 -1.643866 -7.133893 56.994541 -6.079674 -4.328634 59.092827 2.585490 -4.435337 27.321394 0.576068 -2.373910 0.000378 0.001381 0.002321 -3.924000 -5.010161 -4.132215 44.438465 4.235605 -9.014159 58.351711 6.171527 -10.967583 38.813599 2.830178 -8.061656 0.000639 -0.002258 0.000204 -1.999826 7.936744 1.725217 9.909926 -4.081522 0.887858 9.897312 -0.067338 0.886348 15.072154 -0.177669 1.348244 0.001238 0.001522 -0.001768 7.183546 8.092321 50.696072 5.619697 -4.334892 1.508021 13.368120 -8.997146 3.291628 0.000281 0.003126 -0.001065 -9.441080 8.377759 -1.390921 -66.509262 -13.378660 3.184170 179.999222 -61.041439 176.460953 16.906481 11.010178 -0.034359 -22.152151 3.089920 0.000506 -0.393266 0.000458 0.001360 -6.931567 -0.001508 0.001149 -0.000266 -0.001188 0.000382 -1.397078 1.504511 -11.535887 -19.503138 0.727661 -1.724815 -16.480818 -0.185377 -1.463190 0.070284 0.000792 0.006074 0.001055 -0.000831 0.002978 -0.331028 0.428431 -9.983281 -14.693138 10.247903 -3.176888 -19.958845 -0.765759 -4.377787 -16.109854 -0.507219 -3.558966 0.002680 0.001877 0.000821 2.483213 -6.491450 -4.220545 -15.234577 1.137780 1.359508 11.028868 0.090621 -0.986398 3.262796 -0.001841 -0.292030 0.002265 0.001820 0.001112 -11.224245 2.291151 41.275005 5.331134 5.676779 -3.059091 0.000000 0.000000 0.000000 -0.002295 -0.001735 -0.001385 12.539280 -3.031356 11.566562 -0.000457 0.001041 0.681344 0.000000 0.000000 -0.000000 -0.000000 0.000000 -0.000000 -0.000000 0.000000 0.000000 0.000000 0.000000 0.000000 20.122782 4.360971 -2.785592 -0.000680 0.002707 10.228946 -0.000000 -0.000000 -0.000000 0.000000 -0.000000 -0.000000 0.000000 -0.000000 0.000000 -0.000000 -0.000000 0.000000 
-3.452598 -0.908360 8.561199 -8.691122 24.768991 -8.166862 10.040850 -1.316059 6.248676 -0.397343 -0.229411 -2.003061 0.258677 0.304536 -0.917681 2.101650 0.781858 9.746470 5.446021 -1.421635 7.419332 -8.159492 2.382612 0.758406 -4.891366 1.020680 1.664955 0.001341 -0.001876 -0.001780 6.561625 -13.400888 -1.551503 69.219238 14.812598 3.804589 179.993637 63.471375 165.330078 -29.789593 -3.683976 -0.008265 41.829788 -7.770229 -0.012921 40.967987 -0.000639 -0.001618 27.991217 -0.001342 0.000319 0.000763 -0.004117 -0.001065 -1.864718 -1.590980 -6.916426 54.885853 -6.160326 -4.221360 57.167679 2.452925 -4.343673 26.375505 0.542427 -2.297206 0.000588 0.001188 0.002251 -3.800140 -4.962131 -4.402804 42.607368 4.008074 -8.717965 57.415005 6.004838 -10.854849 38.362713 2.771278 -7.981478 0.000602 -0.002336 0.000539 -1.904161 7.816729 1.598298 10.802230 -4.524037 0.971655 10.448075 -0.071307 0.935064 15.255813 -0.180141 1.364068 0.001276 0.001070 -0.001476 7.053751 8.015235 50.038338 5.030288 -4.340007 1.297442 12.711698 -8.545535 3.172304 0.000006 0.003173 -0.000846 -9.403158 8.440621 -1.397811 -66.553894 -13.320221 3.480368 179.998962 -61.131992 176.513306 17.075478 11.090919 -0.033044 -20.858574 3.430398 -0.000157 -0.879948 0.000143 0.001174 -6.935729 -0.001377 0.001272 -0.000030 -0.000878 0.000187 -1.326798 1.423302 -11.326524 -18.309500 1.022757 -1.622725 -16.320801 -0.177223 -1.448549 -0.003231 0.000945 -0.000684 0.001126 -0.000667 0.002587 -0.369796 0.410650 -9.965110 -13.406394 10.312624 -2.903472 -19.722929 -0.748391 -4.327895 -16.095613 -0.506679 -3.556463 0.002828 0.001710 0.000747 2.420702 -6.410004 -3.982124 -14.742845 1.279323 1.315230 9.699881 0.075723 -0.869141 2.432274 -0.003020 -0.217576 0.002002 0.001985 0.001014 -11.047820 2.174173 41.290745 4.748924 5.768548 -2.810647 0.000000 0.000000 0.000000 -0.002282 -0.001681 -0.001344 12.528419 -2.940641 11.523135 -0.000289 0.000760 0.684954 0.000000 0.000000 -0.000000 -0.000000 0.000000 -0.000000 -0.000000 0.000000 0.000000 0.000000 0.000000 0.000000 20.106680 4.436455 -2.837116 -0.000935 0.002296 10.224237 -0.000000 -0.000000 -0.000000 0.000000 -0.000000 -0.000000 0.000000 -0.000000 0.000000 -0.000000 -0.000000 0.000000 
-3.464735 -0.896753 8.614593 -8.663622 24.602568 -8.085936 10.029965 -1.305104 6.309529 -0.397699 -0.228424 -1.998144 0.250565 0.310930 -0.917567 2.075569 0.780297 9.765876 5.383454 -1.343634 7.415910 -8.153531 2.459207 0.633119 -4.902099 1.027402 1.611174 0.001654 -0.001930 -0.001734 6.556735 -13.453396 -1.553771 69.206841 14.379998 3.711688 179.993057 63.759415 164.883377 -30.393377 -3.632041 -0.007608 40.007133 -7.980875 -0.012127 38.986252 -0.000480 -0.001218 26.351927 -0.000952 0.000348 0.000738 -0.004066 -0.001031 -1.855560 -1.556276 -6.688936 52.407681 -6.296343 -4.088450 54.636662 2.270434 -4.215486 25.194149 0.499134 -2.200812 0.000937 0.001078 0.002203 -3.631756 -4.893515 -4.691798 40.597759 3.619860 -8.378074 55.880646 5.729105 -10.664170 37.605911 2.672342 -7.846263 0.000586 -0.002380 0.000755 -1.802404 7.681937 1.546840 11.331724 -4.858959 1.022725 10.470792 -0.075633 0.936680 15.079155 -0.176748 1.348382 0.001464 0.000724 -0.001157 6.955429 7.871655 49.357826 4.557273 -4.318299 1.130221 12.050605 -8.084790 3.054393 -0.000233 0.003100 -0.000805 -9.366888 8.499687 -1.404825 -66.576187 -13.285378 3.868604 179.998596 -61.276737 176.663773 17.373589 11.153386 -0.033282 -19.521826 3.812153 -0.000931 -1.738828 -0.000228 0.000992 -7.029544 -0.001128 0.001206 0.000161 -0.000582 -0.000133 -1.249711 1.352520 -11.134255 -17.106871 1.389675 -1.519307 -16.607548 -0.183202 -1.472767 -0.152548 0.001070 -0.014317 0.001204 -0.000330 0.002146 -0.413100 0.419384 -9.860699 -12.072100 10.317701 -2.618540 -19.668915 -0.747281 -4.316667 -16.167711 -0.510085 -3.572246 0.002883 0.001671 0.000715 2.328428 -6.333958 -3.721589 -14.256834 1.521766 1.271857 8.012408 0.060131 -0.719182 1.475664 -0.003395 -0.131433 0.001571 0.002202 0.000794 -10.938313 2.078036 41.366528 4.055472 5.858041 -2.515776 0.000000 0.000000 0.000000 -0.002277 -0.001674 -0.001316 12.493118 -2.875995 11.490463 -0.000081 0.000569 0.712784 0.000000 0.000000 -0.000000 -0.000000 0.000000 -0.000000 -0.000000 0.000000 0.000000 0.000000 0.000000 0.000000 20.083265 4.437467 -2.868636 -0.001201 0.001955 10.216620 -0.000000 -0.000000 -0.000000 0.000000 -0.000000 -0.000000 0.000000 -0.000000 0.000000 -0.000000 -0.000000 -0.000000 
